<?xml version="1.0" encoding="UTF-8" standalone="no"?>
<!DOCTYPE svg PUBLIC "-//W3C//DTD SVG 1.1//EN"
 "http://www.w3.org/Graphics/SVG/1.1/DTD/svg11.dtd">
<!-- Generated by graphviz version 2.28.0 (20111028.1807)
 -->
<!-- Title: controllers_diagram Pages: 1 -->
<svg width="589pt" height="548pt"
 viewBox="0.00 0.00 589.38 548.20" xmlns="http://www.w3.org/2000/svg" xmlns:xlink="http://www.w3.org/1999/xlink">
<g id="graph1" class="graph" transform="scale(1 1) rotate(0) translate(4 544.2)">
<title>controllers_diagram</title>
<polygon fill="white" stroke="white" points="-4,5 -4,-544.2 586.375,-544.2 586.375,5 -4,5"/>
<!-- _diagram_info -->
<g id="node1" class="node"><title>_diagram_info</title>
<text text-anchor="start" x="382" y="-426" font-family="Times,serif" font-size="13.00">Controllers diagram</text>
<text text-anchor="start" x="382" y="-410.4" font-family="Times,serif" font-size="13.00">Date: May 29 2012 &#45; 18:53</text>
<text text-anchor="start" x="382" y="-394.8" font-family="Times,serif" font-size="13.00">Migration version: 20120406165047</text>
<text text-anchor="start" x="382" y="-379.2" font-family="Times,serif" font-size="13.00">Generated by RailRoady 1.0.7</text>
<text text-anchor="start" x="382" y="-363.6" font-family="Times,serif" font-size="13.00">http://railroady.prestonlee.com</text>
</g>
<!-- ApplicationController -->
<g id="node2" class="node"><title>ApplicationController</title>
<polyline fill="none" stroke="black" points="301,-0.5 472.635,-0.5 "/>
<path fill="none" stroke="black" d="M472.635,-0.5C478.635,-0.5 484.635,-6.5 484.635,-12.5"/>
<polyline fill="none" stroke="black" points="484.635,-12.5 484.635,-86.9 "/>
<path fill="none" stroke="black" d="M484.635,-86.9C484.635,-92.9 478.635,-98.9 472.635,-98.9"/>
<polyline fill="none" stroke="black" points="472.635,-98.9 301,-98.9 "/>
<path fill="none" stroke="black" d="M301,-98.9C295,-98.9 289,-92.9 289,-86.9"/>
<polyline fill="none" stroke="black" points="289,-86.9 289,-12.5 "/>
<path fill="none" stroke="black" d="M289,-12.5C289,-6.5 295,-0.5 301,-0.5"/>
<text text-anchor="middle" x="386.817" y="-80.9" font-family="Times,serif" font-size="14.00">ApplicationController</text>
<polyline fill="none" stroke="black" points="289,-74.1 484.635,-74.1 "/>
<text text-anchor="start" x="297" y="-56.1" font-family="Times,serif" font-size="14.00">_one_time_conditions_valid_8?</text>
<polyline fill="none" stroke="black" points="289,-49.3 484.635,-49.3 "/>
<polyline fill="none" stroke="black" points="289,-25.3 484.635,-25.3 "/>
<text text-anchor="start" x="297" y="-7.3" font-family="Times,serif" font-size="14.00">_layout</text>
</g>
<!-- IterationsController -->
<g id="node3" class="node"><title>IterationsController</title>
<polyline fill="none" stroke="black" points="301,-136.5 403.414,-136.5 "/>
<path fill="none" stroke="black" d="M403.414,-136.5C409.414,-136.5 415.414,-142.5 415.414,-148.5"/>
<polyline fill="none" stroke="black" points="415.414,-148.5 415.414,-306.9 "/>
<path fill="none" stroke="black" d="M415.414,-306.9C415.414,-312.9 409.414,-318.9 403.414,-318.9"/>
<polyline fill="none" stroke="black" points="403.414,-318.9 301,-318.9 "/>
<path fill="none" stroke="black" d="M301,-318.9C295,-318.9 289,-312.9 289,-306.9"/>
<polyline fill="none" stroke="black" points="289,-306.9 289,-148.5 "/>
<path fill="none" stroke="black" d="M289,-148.5C289,-142.5 295,-136.5 301,-136.5"/>
<text text-anchor="middle" x="352.207" y="-300.9" font-family="Times,serif" font-size="14.00">IterationsController</text>
<polyline fill="none" stroke="black" points="289,-294.1 415.414,-294.1 "/>
<text text-anchor="start" x="297" y="-276.1" font-family="Times,serif" font-size="14.00">create</text>
<text text-anchor="start" x="297" y="-259.3" font-family="Times,serif" font-size="14.00">destroy</text>
<text text-anchor="start" x="297" y="-242.5" font-family="Times,serif" font-size="14.00">edit</text>
<text text-anchor="start" x="297" y="-225.7" font-family="Times,serif" font-size="14.00">new</text>
<text text-anchor="start" x="297" y="-208.9" font-family="Times,serif" font-size="14.00">show</text>
<text text-anchor="start" x="297" y="-192.1" font-family="Times,serif" font-size="14.00">update</text>
<polyline fill="none" stroke="black" points="289,-185.3 415.414,-185.3 "/>
<polyline fill="none" stroke="black" points="289,-161.3 415.414,-161.3 "/>
<text text-anchor="start" x="297" y="-143.3" font-family="Times,serif" font-size="14.00">_layout</text>
</g>
<!-- PagesController -->
<g id="node4" class="node"><title>PagesController</title>
<polyline fill="none" stroke="black" points="12,-425.5 94.207,-425.5 "/>
<path fill="none" stroke="black" d="M94.207,-425.5C100.207,-425.5 106.207,-431.5 106.207,-437.5"/>
<polyline fill="none" stroke="black" points="106.207,-437.5 106.207,-511.9 "/>
<path fill="none" stroke="black" d="M106.207,-511.9C106.207,-517.9 100.207,-523.9 94.207,-523.9"/>
<polyline fill="none" stroke="black" points="94.207,-523.9 12,-523.9 "/>
<path fill="none" stroke="black" d="M12,-523.9C6,-523.9 2.84217e-14,-517.9 2.84217e-14,-511.9"/>
<polyline fill="none" stroke="black" points="2.84217e-14,-511.9 2.84217e-14,-437.5 "/>
<path fill="none" stroke="black" d="M2.84217e-14,-437.5C2.84217e-14,-431.5 6,-425.5 12,-425.5"/>
<text text-anchor="middle" x="53.1035" y="-505.9" font-family="Times,serif" font-size="14.00">PagesController</text>
<polyline fill="none" stroke="black" points="2.84217e-14,-499.1 106.207,-499.1 "/>
<text text-anchor="start" x="8" y="-481.1" font-family="Times,serif" font-size="14.00">home</text>
<polyline fill="none" stroke="black" points="2.84217e-14,-474.3 106.207,-474.3 "/>
<polyline fill="none" stroke="black" points="2.84217e-14,-450.3 106.207,-450.3 "/>
<text text-anchor="start" x="8" y="-432.3" font-family="Times,serif" font-size="14.00">_layout</text>
</g>
<!-- ProjectsController -->
<g id="node5" class="node"><title>ProjectsController</title>
<polyline fill="none" stroke="black" points="148,-340.5 242.648,-340.5 "/>
<path fill="none" stroke="black" d="M242.648,-340.5C248.648,-340.5 254.648,-346.5 254.648,-352.5"/>
<polyline fill="none" stroke="black" points="254.648,-352.5 254.648,-527.7 "/>
<path fill="none" stroke="black" d="M254.648,-527.7C254.648,-533.7 248.648,-539.7 242.648,-539.7"/>
<polyline fill="none" stroke="black" points="242.648,-539.7 148,-539.7 "/>
<path fill="none" stroke="black" d="M148,-539.7C142,-539.7 136,-533.7 136,-527.7"/>
<polyline fill="none" stroke="black" points="136,-527.7 136,-352.5 "/>
<path fill="none" stroke="black" d="M136,-352.5C136,-346.5 142,-340.5 148,-340.5"/>
<text text-anchor="middle" x="195.324" y="-521.7" font-family="Times,serif" font-size="14.00">ProjectsController</text>
<polyline fill="none" stroke="black" points="136,-514.9 254.648,-514.9 "/>
<text text-anchor="start" x="144" y="-496.9" font-family="Times,serif" font-size="14.00">create</text>
<text text-anchor="start" x="144" y="-480.1" font-family="Times,serif" font-size="14.00">destroy</text>
<text text-anchor="start" x="144" y="-463.3" font-family="Times,serif" font-size="14.00">edit</text>
<text text-anchor="start" x="144" y="-446.5" font-family="Times,serif" font-size="14.00">index</text>
<text text-anchor="start" x="144" y="-429.7" font-family="Times,serif" font-size="14.00">new</text>
<text text-anchor="start" x="144" y="-412.9" font-family="Times,serif" font-size="14.00">show</text>
<text text-anchor="start" x="144" y="-396.1" font-family="Times,serif" font-size="14.00">update</text>
<polyline fill="none" stroke="black" points="136,-389.3 254.648,-389.3 "/>
<polyline fill="none" stroke="black" points="136,-365.3 254.648,-365.3 "/>
<text text-anchor="start" x="144" y="-347.3" font-family="Times,serif" font-size="14.00">_layout</text>
</g>
<!-- StoriesController -->
<g id="node6" class="node"><title>StoriesController</title>
<polyline fill="none" stroke="black" points="12,-119.5 100.435,-119.5 "/>
<path fill="none" stroke="black" d="M100.435,-119.5C106.435,-119.5 112.435,-125.5 112.435,-131.5"/>
<polyline fill="none" stroke="black" points="112.435,-131.5 112.435,-289.9 "/>
<path fill="none" stroke="black" d="M112.435,-289.9C112.435,-295.9 106.435,-301.9 100.435,-301.9"/>
<polyline fill="none" stroke="black" points="100.435,-301.9 12,-301.9 "/>
<path fill="none" stroke="black" d="M12,-301.9C6,-301.9 2.84217e-14,-295.9 2.84217e-14,-289.9"/>
<polyline fill="none" stroke="black" points="2.84217e-14,-289.9 2.84217e-14,-131.5 "/>
<path fill="none" stroke="black" d="M2.84217e-14,-131.5C2.84217e-14,-125.5 6,-119.5 12,-119.5"/>
<text text-anchor="middle" x="56.2173" y="-283.9" font-family="Times,serif" font-size="14.00">StoriesController</text>
<polyline fill="none" stroke="black" points="2.84217e-14,-277.1 112.435,-277.1 "/>
<text text-anchor="start" x="8" y="-259.1" font-family="Times,serif" font-size="14.00">create</text>
<text text-anchor="start" x="8" y="-242.3" font-family="Times,serif" font-size="14.00">destroy</text>
<text text-anchor="start" x="8" y="-225.5" font-family="Times,serif" font-size="14.00">edit</text>
<text text-anchor="start" x="8" y="-208.7" font-family="Times,serif" font-size="14.00">new</text>
<text text-anchor="start" x="8" y="-191.9" font-family="Times,serif" font-size="14.00">show</text>
<text text-anchor="start" x="8" y="-175.1" font-family="Times,serif" font-size="14.00">update</text>
<polyline fill="none" stroke="black" points="2.84217e-14,-168.3 112.435,-168.3 "/>
<polyline fill="none" stroke="black" points="2.84217e-14,-144.3 112.435,-144.3 "/>
<text text-anchor="start" x="8" y="-126.3" font-family="Times,serif" font-size="14.00">_layout</text>
</g>
<!-- TasksController -->
<g id="node7" class="node"><title>TasksController</title>
<polyline fill="none" stroke="black" points="454,-136.5 535.229,-136.5 "/>
<path fill="none" stroke="black" d="M535.229,-136.5C541.229,-136.5 547.229,-142.5 547.229,-148.5"/>
<polyline fill="none" stroke="black" points="547.229,-148.5 547.229,-306.9 "/>
<path fill="none" stroke="black" d="M547.229,-306.9C547.229,-312.9 541.229,-318.9 535.229,-318.9"/>
<polyline fill="none" stroke="black" points="535.229,-318.9 454,-318.9 "/>
<path fill="none" stroke="black" d="M454,-318.9C448,-318.9 442,-312.9 442,-306.9"/>
<polyline fill="none" stroke="black" points="442,-306.9 442,-148.5 "/>
<path fill="none" stroke="black" d="M442,-148.5C442,-142.5 448,-136.5 454,-136.5"/>
<text text-anchor="middle" x="494.615" y="-300.9" font-family="Times,serif" font-size="14.00">TasksController</text>
<polyline fill="none" stroke="black" points="442,-294.1 547.229,-294.1 "/>
<text text-anchor="start" x="450" y="-276.1" font-family="Times,serif" font-size="14.00">create</text>
<text text-anchor="start" x="450" y="-259.3" font-family="Times,serif" font-size="14.00">destroy</text>
<text text-anchor="start" x="450" y="-242.5" font-family="Times,serif" font-size="14.00">edit</text>
<text text-anchor="start" x="450" y="-225.7" font-family="Times,serif" font-size="14.00">new</text>
<text text-anchor="start" x="450" y="-208.9" font-family="Times,serif" font-size="14.00">show</text>
<text text-anchor="start" x="450" y="-192.1" font-family="Times,serif" font-size="14.00">update</text>
<polyline fill="none" stroke="black" points="442,-185.3 547.229,-185.3 "/>
<polyline fill="none" stroke="black" points="442,-161.3 547.229,-161.3 "/>
<text text-anchor="start" x="450" y="-143.3" font-family="Times,serif" font-size="14.00">_layout</text>
</g>
<!-- TeamsController -->
<g id="node8" class="node"><title>TeamsController</title>
<polyline fill="none" stroke="black" points="165,-102.5 250.885,-102.5 "/>
<path fill="none" stroke="black" d="M250.885,-102.5C256.885,-102.5 262.885,-108.5 262.885,-114.5"/>
<polyline fill="none" stroke="black" points="262.885,-114.5 262.885,-289.7 "/>
<path fill="none" stroke="black" d="M262.885,-289.7C262.885,-295.7 256.885,-301.7 250.885,-301.7"/>
<polyline fill="none" stroke="black" points="250.885,-301.7 165,-301.7 "/>
<path fill="none" stroke="black" d="M165,-301.7C159,-301.7 153,-295.7 153,-289.7"/>
<polyline fill="none" stroke="black" points="153,-289.7 153,-114.5 "/>
<path fill="none" stroke="black" d="M153,-114.5C153,-108.5 159,-102.5 165,-102.5"/>
<text text-anchor="middle" x="207.942" y="-283.7" font-family="Times,serif" font-size="14.00">TeamsController</text>
<polyline fill="none" stroke="black" points="153,-276.9 262.885,-276.9 "/>
<text text-anchor="start" x="161" y="-258.9" font-family="Times,serif" font-size="14.00">create</text>
<text text-anchor="start" x="161" y="-242.1" font-family="Times,serif" font-size="14.00">destroy</text>
<text text-anchor="start" x="161" y="-225.3" font-family="Times,serif" font-size="14.00">edit</text>
<text text-anchor="start" x="161" y="-208.5" font-family="Times,serif" font-size="14.00">index</text>
<text text-anchor="start" x="161" y="-191.7" font-family="Times,serif" font-size="14.00">new</text>
<text text-anchor="start" x="161" y="-174.9" font-family="Times,serif" font-size="14.00">show</text>
<text text-anchor="start" x="161" y="-158.1" font-family="Times,serif" font-size="14.00">update</text>
<polyline fill="none" stroke="black" points="153,-151.3 262.885,-151.3 "/>
<polyline fill="none" stroke="black" points="153,-127.3 262.885,-127.3 "/>
<text text-anchor="start" x="161" y="-109.3" font-family="Times,serif" font-size="14.00">_layout</text>
</g>
</g>
</svg>
