<?xml version="1.0" encoding="UTF-8" standalone="no"?>
<!DOCTYPE svg PUBLIC "-//W3C//DTD SVG 1.1//EN"
 "http://www.w3.org/Graphics/SVG/1.1/DTD/svg11.dtd">
<!-- Generated by graphviz version 2.28.0 (20111028.1807)
 -->
<!-- Title: controllers_diagram Pages: 1 -->
<svg width="607pt" height="565pt"
 viewBox="0.00 0.00 607.21 565.40" xmlns="http://www.w3.org/2000/svg" xmlns:xlink="http://www.w3.org/1999/xlink">
<g id="graph1" class="graph" transform="scale(1 1) rotate(0) translate(4 561.4)">
<title>controllers_diagram</title>
<polygon fill="white" stroke="white" points="-4,5 -4,-561.4 604.207,-561.4 604.207,5 -4,5"/>
<!-- _diagram_info -->
<g id="node1" class="node"><title>_diagram_info</title>
<text text-anchor="start" x="59" y="-69" font-family="Times,serif" font-size="13.00">Controllers diagram</text>
<text text-anchor="start" x="59" y="-53.4" font-family="Times,serif" font-size="13.00">Date: Jun 12 2012 &#45; 19:19</text>
<text text-anchor="start" x="59" y="-37.8" font-family="Times,serif" font-size="13.00">Migration version: 20120610102815</text>
<text text-anchor="start" x="59" y="-22.2" font-family="Times,serif" font-size="13.00">Generated by RailRoady 1.0.7</text>
<text text-anchor="start" x="59" y="-6.6" font-family="Times,serif" font-size="13.00">http://railroady.prestonlee.com</text>
</g>
<!-- ApplicationController -->
<g id="node2" class="node"><title>ApplicationController</title>
<polyline fill="none" stroke="black" points="148,-119.5 326.635,-119.5 "/>
<path fill="none" stroke="black" d="M326.635,-119.5C332.635,-119.5 338.635,-125.5 338.635,-131.5"/>
<polyline fill="none" stroke="black" points="338.635,-131.5 338.635,-239.5 "/>
<path fill="none" stroke="black" d="M338.635,-239.5C338.635,-245.5 332.635,-251.5 326.635,-251.5"/>
<polyline fill="none" stroke="black" points="326.635,-251.5 148,-251.5 "/>
<path fill="none" stroke="black" d="M148,-251.5C142,-251.5 136,-245.5 136,-239.5"/>
<polyline fill="none" stroke="black" points="136,-239.5 136,-131.5 "/>
<path fill="none" stroke="black" d="M136,-131.5C136,-125.5 142,-119.5 148,-119.5"/>
<text text-anchor="middle" x="237.317" y="-233.5" font-family="Times,serif" font-size="14.00">ApplicationController</text>
<polyline fill="none" stroke="black" points="136,-226.7 338.635,-226.7 "/>
<text text-anchor="start" x="144" y="-208.7" font-family="Times,serif" font-size="14.00">_one_time_conditions_valid_12?</text>
<text text-anchor="start" x="144" y="-191.9" font-family="Times,serif" font-size="14.00">_one_time_conditions_valid_14?</text>
<text text-anchor="start" x="144" y="-175.1" font-family="Times,serif" font-size="14.00">require_http_basic_auth</text>
<polyline fill="none" stroke="black" points="136,-168.3 338.635,-168.3 "/>
<polyline fill="none" stroke="black" points="136,-144.3 338.635,-144.3 "/>
<text text-anchor="start" x="144" y="-126.3" font-family="Times,serif" font-size="14.00">_layout</text>
</g>
<!-- IterationsController -->
<g id="node3" class="node"><title>IterationsController</title>
<polyline fill="none" stroke="black" points="352,-289.5 454.414,-289.5 "/>
<path fill="none" stroke="black" d="M454.414,-289.5C460.414,-289.5 466.414,-295.5 466.414,-301.5"/>
<polyline fill="none" stroke="black" points="466.414,-301.5 466.414,-459.9 "/>
<path fill="none" stroke="black" d="M466.414,-459.9C466.414,-465.9 460.414,-471.9 454.414,-471.9"/>
<polyline fill="none" stroke="black" points="454.414,-471.9 352,-471.9 "/>
<path fill="none" stroke="black" d="M352,-471.9C346,-471.9 340,-465.9 340,-459.9"/>
<polyline fill="none" stroke="black" points="340,-459.9 340,-301.5 "/>
<path fill="none" stroke="black" d="M340,-301.5C340,-295.5 346,-289.5 352,-289.5"/>
<text text-anchor="middle" x="403.207" y="-453.9" font-family="Times,serif" font-size="14.00">IterationsController</text>
<polyline fill="none" stroke="black" points="340,-447.1 466.414,-447.1 "/>
<text text-anchor="start" x="348" y="-429.1" font-family="Times,serif" font-size="14.00">create</text>
<text text-anchor="start" x="348" y="-412.3" font-family="Times,serif" font-size="14.00">destroy</text>
<text text-anchor="start" x="348" y="-395.5" font-family="Times,serif" font-size="14.00">edit</text>
<text text-anchor="start" x="348" y="-378.7" font-family="Times,serif" font-size="14.00">new</text>
<text text-anchor="start" x="348" y="-361.9" font-family="Times,serif" font-size="14.00">show</text>
<text text-anchor="start" x="348" y="-345.1" font-family="Times,serif" font-size="14.00">update</text>
<polyline fill="none" stroke="black" points="340,-338.3 466.414,-338.3 "/>
<polyline fill="none" stroke="black" points="340,-314.3 466.414,-314.3 "/>
<text text-anchor="start" x="348" y="-296.3" font-family="Times,serif" font-size="14.00">_layout</text>
</g>
<!-- PagesController -->
<g id="node4" class="node"><title>PagesController</title>
<polyline fill="none" stroke="black" points="505,-289.5 587.207,-289.5 "/>
<path fill="none" stroke="black" d="M587.207,-289.5C593.207,-289.5 599.207,-295.5 599.207,-301.5"/>
<polyline fill="none" stroke="black" points="599.207,-301.5 599.207,-375.9 "/>
<path fill="none" stroke="black" d="M599.207,-375.9C599.207,-381.9 593.207,-387.9 587.207,-387.9"/>
<polyline fill="none" stroke="black" points="587.207,-387.9 505,-387.9 "/>
<path fill="none" stroke="black" d="M505,-387.9C499,-387.9 493,-381.9 493,-375.9"/>
<polyline fill="none" stroke="black" points="493,-375.9 493,-301.5 "/>
<path fill="none" stroke="black" d="M493,-301.5C493,-295.5 499,-289.5 505,-289.5"/>
<text text-anchor="middle" x="546.104" y="-369.9" font-family="Times,serif" font-size="14.00">PagesController</text>
<polyline fill="none" stroke="black" points="493,-363.1 599.207,-363.1 "/>
<text text-anchor="start" x="501" y="-345.1" font-family="Times,serif" font-size="14.00">home</text>
<polyline fill="none" stroke="black" points="493,-338.3 599.207,-338.3 "/>
<polyline fill="none" stroke="black" points="493,-314.3 599.207,-314.3 "/>
<text text-anchor="start" x="501" y="-296.3" font-family="Times,serif" font-size="14.00">_layout</text>
</g>
<!-- ProjectsController -->
<g id="node5" class="node"><title>ProjectsController</title>
<polyline fill="none" stroke="black" points="386,-51.5 480.648,-51.5 "/>
<path fill="none" stroke="black" d="M480.648,-51.5C486.648,-51.5 492.648,-57.5 492.648,-63.5"/>
<polyline fill="none" stroke="black" points="492.648,-63.5 492.648,-238.7 "/>
<path fill="none" stroke="black" d="M492.648,-238.7C492.648,-244.7 486.648,-250.7 480.648,-250.7"/>
<polyline fill="none" stroke="black" points="480.648,-250.7 386,-250.7 "/>
<path fill="none" stroke="black" d="M386,-250.7C380,-250.7 374,-244.7 374,-238.7"/>
<polyline fill="none" stroke="black" points="374,-238.7 374,-63.5 "/>
<path fill="none" stroke="black" d="M374,-63.5C374,-57.5 380,-51.5 386,-51.5"/>
<text text-anchor="middle" x="433.324" y="-232.7" font-family="Times,serif" font-size="14.00">ProjectsController</text>
<polyline fill="none" stroke="black" points="374,-225.9 492.648,-225.9 "/>
<text text-anchor="start" x="382" y="-207.9" font-family="Times,serif" font-size="14.00">create</text>
<text text-anchor="start" x="382" y="-191.1" font-family="Times,serif" font-size="14.00">destroy</text>
<text text-anchor="start" x="382" y="-174.3" font-family="Times,serif" font-size="14.00">edit</text>
<text text-anchor="start" x="382" y="-157.5" font-family="Times,serif" font-size="14.00">index</text>
<text text-anchor="start" x="382" y="-140.7" font-family="Times,serif" font-size="14.00">new</text>
<text text-anchor="start" x="382" y="-123.9" font-family="Times,serif" font-size="14.00">show</text>
<text text-anchor="start" x="382" y="-107.1" font-family="Times,serif" font-size="14.00">update</text>
<polyline fill="none" stroke="black" points="374,-100.3 492.648,-100.3 "/>
<polyline fill="none" stroke="black" points="374,-76.3 492.648,-76.3 "/>
<text text-anchor="start" x="382" y="-58.3" font-family="Times,serif" font-size="14.00">_layout</text>
</g>
<!-- StoriesController -->
<g id="node6" class="node"><title>StoriesController</title>
<polyline fill="none" stroke="black" points="63,-374.5 151.435,-374.5 "/>
<path fill="none" stroke="black" d="M151.435,-374.5C157.435,-374.5 163.435,-380.5 163.435,-386.5"/>
<polyline fill="none" stroke="black" points="163.435,-386.5 163.435,-544.9 "/>
<path fill="none" stroke="black" d="M163.435,-544.9C163.435,-550.9 157.435,-556.9 151.435,-556.9"/>
<polyline fill="none" stroke="black" points="151.435,-556.9 63,-556.9 "/>
<path fill="none" stroke="black" d="M63,-556.9C57,-556.9 51,-550.9 51,-544.9"/>
<polyline fill="none" stroke="black" points="51,-544.9 51,-386.5 "/>
<path fill="none" stroke="black" d="M51,-386.5C51,-380.5 57,-374.5 63,-374.5"/>
<text text-anchor="middle" x="107.217" y="-538.9" font-family="Times,serif" font-size="14.00">StoriesController</text>
<polyline fill="none" stroke="black" points="51,-532.1 163.435,-532.1 "/>
<text text-anchor="start" x="59" y="-514.1" font-family="Times,serif" font-size="14.00">create</text>
<text text-anchor="start" x="59" y="-497.3" font-family="Times,serif" font-size="14.00">destroy</text>
<text text-anchor="start" x="59" y="-480.5" font-family="Times,serif" font-size="14.00">edit</text>
<text text-anchor="start" x="59" y="-463.7" font-family="Times,serif" font-size="14.00">new</text>
<text text-anchor="start" x="59" y="-446.9" font-family="Times,serif" font-size="14.00">show</text>
<text text-anchor="start" x="59" y="-430.1" font-family="Times,serif" font-size="14.00">update</text>
<polyline fill="none" stroke="black" points="51,-423.3 163.435,-423.3 "/>
<polyline fill="none" stroke="black" points="51,-399.3 163.435,-399.3 "/>
<text text-anchor="start" x="59" y="-381.3" font-family="Times,serif" font-size="14.00">_layout</text>
</g>
<!-- TasksController -->
<g id="node7" class="node"><title>TasksController</title>
<polyline fill="none" stroke="black" points="12,-153.5 93.2295,-153.5 "/>
<path fill="none" stroke="black" d="M93.2295,-153.5C99.2295,-153.5 105.229,-159.5 105.229,-165.5"/>
<polyline fill="none" stroke="black" points="105.229,-165.5 105.229,-323.9 "/>
<path fill="none" stroke="black" d="M105.229,-323.9C105.229,-329.9 99.2295,-335.9 93.2295,-335.9"/>
<polyline fill="none" stroke="black" points="93.2295,-335.9 12,-335.9 "/>
<path fill="none" stroke="black" d="M12,-335.9C6,-335.9 -2.84217e-14,-329.9 -2.84217e-14,-323.9"/>
<polyline fill="none" stroke="black" points="-2.84217e-14,-323.9 -2.84217e-14,-165.5 "/>
<path fill="none" stroke="black" d="M-2.84217e-14,-165.5C-2.84217e-14,-159.5 6,-153.5 12,-153.5"/>
<text text-anchor="middle" x="52.6147" y="-317.9" font-family="Times,serif" font-size="14.00">TasksController</text>
<polyline fill="none" stroke="black" points="-2.84217e-14,-311.1 105.229,-311.1 "/>
<text text-anchor="start" x="8" y="-293.1" font-family="Times,serif" font-size="14.00">create</text>
<text text-anchor="start" x="8" y="-276.3" font-family="Times,serif" font-size="14.00">destroy</text>
<text text-anchor="start" x="8" y="-259.5" font-family="Times,serif" font-size="14.00">edit</text>
<text text-anchor="start" x="8" y="-242.7" font-family="Times,serif" font-size="14.00">new</text>
<text text-anchor="start" x="8" y="-225.9" font-family="Times,serif" font-size="14.00">show</text>
<text text-anchor="start" x="8" y="-209.1" font-family="Times,serif" font-size="14.00">update</text>
<polyline fill="none" stroke="black" points="-2.84217e-14,-202.3 105.229,-202.3 "/>
<polyline fill="none" stroke="black" points="-2.84217e-14,-178.3 105.229,-178.3 "/>
<text text-anchor="start" x="8" y="-160.3" font-family="Times,serif" font-size="14.00">_layout</text>
</g>
<!-- TeamsController -->
<g id="node8" class="node"><title>TeamsController</title>
<polyline fill="none" stroke="black" points="216,-289.5 301.885,-289.5 "/>
<path fill="none" stroke="black" d="M301.885,-289.5C307.885,-289.5 313.885,-295.5 313.885,-301.5"/>
<polyline fill="none" stroke="black" points="313.885,-301.5 313.885,-476.7 "/>
<path fill="none" stroke="black" d="M313.885,-476.7C313.885,-482.7 307.885,-488.7 301.885,-488.7"/>
<polyline fill="none" stroke="black" points="301.885,-488.7 216,-488.7 "/>
<path fill="none" stroke="black" d="M216,-488.7C210,-488.7 204,-482.7 204,-476.7"/>
<polyline fill="none" stroke="black" points="204,-476.7 204,-301.5 "/>
<path fill="none" stroke="black" d="M204,-301.5C204,-295.5 210,-289.5 216,-289.5"/>
<text text-anchor="middle" x="258.942" y="-470.7" font-family="Times,serif" font-size="14.00">TeamsController</text>
<polyline fill="none" stroke="black" points="204,-463.9 313.885,-463.9 "/>
<text text-anchor="start" x="212" y="-445.9" font-family="Times,serif" font-size="14.00">create</text>
<text text-anchor="start" x="212" y="-429.1" font-family="Times,serif" font-size="14.00">destroy</text>
<text text-anchor="start" x="212" y="-412.3" font-family="Times,serif" font-size="14.00">edit</text>
<text text-anchor="start" x="212" y="-395.5" font-family="Times,serif" font-size="14.00">index</text>
<text text-anchor="start" x="212" y="-378.7" font-family="Times,serif" font-size="14.00">new</text>
<text text-anchor="start" x="212" y="-361.9" font-family="Times,serif" font-size="14.00">show</text>
<text text-anchor="start" x="212" y="-345.1" font-family="Times,serif" font-size="14.00">update</text>
<polyline fill="none" stroke="black" points="204,-338.3 313.885,-338.3 "/>
<polyline fill="none" stroke="black" points="204,-314.3 313.885,-314.3 "/>
<text text-anchor="start" x="212" y="-296.3" font-family="Times,serif" font-size="14.00">_layout</text>
</g>
</g>
</svg>
