<?xml version="1.0" encoding="UTF-8" standalone="no"?>
<!DOCTYPE svg PUBLIC "-//W3C//DTD SVG 1.1//EN"
 "http://www.w3.org/Graphics/SVG/1.1/DTD/svg11.dtd">
<!-- Generated by graphviz version 2.28.0 (20111028.1807)
 -->
<!-- Title: models_diagram Pages: 1 -->
<svg width="492pt" height="812pt"
 viewBox="0.00 0.00 492.00 812.00" xmlns="http://www.w3.org/2000/svg" xmlns:xlink="http://www.w3.org/1999/xlink">
<g id="graph1" class="graph" transform="scale(1 1) rotate(0) translate(4 808)">
<title>models_diagram</title>
<polygon fill="white" stroke="white" points="-4,5 -4,-808 489,-808 489,5 -4,5"/>
<!-- _diagram_info -->
<g id="node1" class="node"><title>_diagram_info</title>
<text text-anchor="start" x="7.31226" y="-754" font-family="Times,serif" font-size="13.00">Models diagram</text>
<text text-anchor="start" x="7.31226" y="-738.4" font-family="Times,serif" font-size="13.00">Date: Jun 12 2012 &#45; 19:19</text>
<text text-anchor="start" x="7.31226" y="-722.8" font-family="Times,serif" font-size="13.00">Migration version: 20120610102815</text>
<text text-anchor="start" x="7.31226" y="-707.2" font-family="Times,serif" font-size="13.00">Generated by RailRoady 1.0.7</text>
<text text-anchor="start" x="7.31226" y="-691.6" font-family="Times,serif" font-size="13.00">http://railroady.prestonlee.com</text>
</g>
<!-- Difficulty -->
<g id="node2" class="node"><title>Difficulty</title>
<polyline fill="none" stroke="black" points="321.495,-498.4 430.505,-498.4 "/>
<path fill="none" stroke="black" d="M430.505,-498.4C436.505,-498.4 442.505,-504.4 442.505,-510.4"/>
<polyline fill="none" stroke="black" points="442.505,-510.4 442.505,-569.6 "/>
<path fill="none" stroke="black" d="M442.505,-569.6C442.505,-575.6 436.505,-581.6 430.505,-581.6"/>
<polyline fill="none" stroke="black" points="430.505,-581.6 321.495,-581.6 "/>
<path fill="none" stroke="black" d="M321.495,-581.6C315.495,-581.6 309.495,-575.6 309.495,-569.6"/>
<polyline fill="none" stroke="black" points="309.495,-569.6 309.495,-510.4 "/>
<path fill="none" stroke="black" d="M309.495,-510.4C309.495,-504.4 315.495,-498.4 321.495,-498.4"/>
<text text-anchor="middle" x="376" y="-563.6" font-family="Times,serif" font-size="14.00">Difficulty</text>
<polyline fill="none" stroke="black" points="309.495,-556.8 442.505,-556.8 "/>
<text text-anchor="start" x="317.495" y="-538.8" font-family="Times,serif" font-size="14.00">created_at :datetime</text>
<text text-anchor="start" x="317.495" y="-522" font-family="Times,serif" font-size="14.00">updated_at :datetime</text>
<text text-anchor="start" x="317.495" y="-505.2" font-family="Times,serif" font-size="14.00">value :integer</text>
</g>
<!-- Story -->
<g id="node7" class="node"><title>Story</title>
<polyline fill="none" stroke="black" points="309.536,-276.8 436.464,-276.8 "/>
<path fill="none" stroke="black" d="M436.464,-276.8C442.464,-276.8 448.464,-282.8 448.464,-288.8"/>
<polyline fill="none" stroke="black" points="448.464,-288.8 448.464,-415.2 "/>
<path fill="none" stroke="black" d="M448.464,-415.2C448.464,-421.2 442.464,-427.2 436.464,-427.2"/>
<polyline fill="none" stroke="black" points="436.464,-427.2 309.536,-427.2 "/>
<path fill="none" stroke="black" d="M309.536,-427.2C303.536,-427.2 297.536,-421.2 297.536,-415.2"/>
<polyline fill="none" stroke="black" points="297.536,-415.2 297.536,-288.8 "/>
<path fill="none" stroke="black" d="M297.536,-288.8C297.536,-282.8 303.536,-276.8 309.536,-276.8"/>
<text text-anchor="middle" x="373" y="-409.2" font-family="Times,serif" font-size="14.00">Story</text>
<polyline fill="none" stroke="black" points="297.536,-402.4 448.464,-402.4 "/>
<text text-anchor="start" x="305.536" y="-384.4" font-family="Times,serif" font-size="14.00">priority :integer</text>
<text text-anchor="start" x="305.536" y="-367.6" font-family="Times,serif" font-size="14.00">name :string</text>
<text text-anchor="start" x="305.536" y="-350.8" font-family="Times,serif" font-size="14.00">definition_of_done :text</text>
<text text-anchor="start" x="305.536" y="-334" font-family="Times,serif" font-size="14.00">category :string</text>
<text text-anchor="start" x="305.536" y="-317.2" font-family="Times,serif" font-size="14.00">created_at :datetime</text>
<text text-anchor="start" x="305.536" y="-300.4" font-family="Times,serif" font-size="14.00">updated_at :datetime</text>
<text text-anchor="start" x="305.536" y="-283.6" font-family="Times,serif" font-size="14.00">done :boolean</text>
</g>
<!-- Difficulty&#45;&gt;Story -->
<g id="edge2" class="edge"><title>Difficulty&#45;&gt;Story</title>
<path fill="none" stroke="#586966" d="M375.213,-490.175C374.953,-474.067 374.656,-455.657 374.366,-437.665"/>
<ellipse fill="none" stroke="#586966" cx="375.277" cy="-494.182" rx="4" ry="4"/>
<polygon fill="#586966" stroke="#586966" points="374.362,-437.436 378.7,-427.365 374.281,-432.437 374.201,-427.437 374.201,-427.437 374.201,-427.437 374.281,-432.437 369.701,-427.51 374.362,-437.436 374.362,-437.436"/>
</g>
<!-- Iteration -->
<g id="node3" class="node"><title>Iteration</title>
<polyline fill="none" stroke="black" points="152.933,-464.8 279.067,-464.8 "/>
<path fill="none" stroke="black" d="M279.067,-464.8C285.067,-464.8 291.067,-470.8 291.067,-476.8"/>
<polyline fill="none" stroke="black" points="291.067,-476.8 291.067,-603.2 "/>
<path fill="none" stroke="black" d="M291.067,-603.2C291.067,-609.2 285.067,-615.2 279.067,-615.2"/>
<polyline fill="none" stroke="black" points="279.067,-615.2 152.933,-615.2 "/>
<path fill="none" stroke="black" d="M152.933,-615.2C146.933,-615.2 140.933,-609.2 140.933,-603.2"/>
<polyline fill="none" stroke="black" points="140.933,-603.2 140.933,-476.8 "/>
<path fill="none" stroke="black" d="M140.933,-476.8C140.933,-470.8 146.933,-464.8 152.933,-464.8"/>
<text text-anchor="middle" x="216" y="-597.2" font-family="Times,serif" font-size="14.00">Iteration</text>
<polyline fill="none" stroke="black" points="140.933,-590.4 291.067,-590.4 "/>
<text text-anchor="start" x="148.933" y="-572.4" font-family="Times,serif" font-size="14.00">starting_date :datetime</text>
<text text-anchor="start" x="148.933" y="-555.6" font-family="Times,serif" font-size="14.00">ending_date :datetime</text>
<text text-anchor="start" x="148.933" y="-538.8" font-family="Times,serif" font-size="14.00">notes :text</text>
<text text-anchor="start" x="148.933" y="-522" font-family="Times,serif" font-size="14.00">created_at :datetime</text>
<text text-anchor="start" x="148.933" y="-505.2" font-family="Times,serif" font-size="14.00">updated_at :datetime</text>
<text text-anchor="start" x="148.933" y="-488.4" font-family="Times,serif" font-size="14.00">iteration_points :integer</text>
<text text-anchor="start" x="148.933" y="-471.6" font-family="Times,serif" font-size="14.00">total_points :integer</text>
</g>
<!-- StoriesInIteration -->
<g id="node6" class="node"><title>StoriesInIteration</title>
<polyline fill="none" stroke="black" points="161.495,-147.4 270.505,-147.4 "/>
<path fill="none" stroke="black" d="M270.505,-147.4C276.505,-147.4 282.505,-153.4 282.505,-159.4"/>
<polyline fill="none" stroke="black" points="282.505,-159.4 282.505,-218.6 "/>
<path fill="none" stroke="black" d="M282.505,-218.6C282.505,-224.6 276.505,-230.6 270.505,-230.6"/>
<polyline fill="none" stroke="black" points="270.505,-230.6 161.495,-230.6 "/>
<path fill="none" stroke="black" d="M161.495,-230.6C155.495,-230.6 149.495,-224.6 149.495,-218.6"/>
<polyline fill="none" stroke="black" points="149.495,-218.6 149.495,-159.4 "/>
<path fill="none" stroke="black" d="M149.495,-159.4C149.495,-153.4 155.495,-147.4 161.495,-147.4"/>
<text text-anchor="middle" x="216" y="-212.6" font-family="Times,serif" font-size="14.00">StoriesInIteration</text>
<polyline fill="none" stroke="black" points="149.495,-205.8 282.505,-205.8 "/>
<text text-anchor="start" x="157.495" y="-187.8" font-family="Times,serif" font-size="14.00">created_at :datetime</text>
<text text-anchor="start" x="157.495" y="-171" font-family="Times,serif" font-size="14.00">updated_at :datetime</text>
<text text-anchor="start" x="157.495" y="-154.2" font-family="Times,serif" font-size="14.00">done :boolean</text>
</g>
<!-- Iteration&#45;&gt;StoriesInIteration -->
<g id="edge4" class="edge"><title>Iteration&#45;&gt;StoriesInIteration</title>
<path fill="none" stroke="#b5e88f" d="M216,-456.467C216,-389.51 216,-297.261 216,-240.729"/>
<ellipse fill="none" stroke="#b5e88f" cx="216" cy="-460.559" rx="4" ry="4"/>
<polygon fill="#b5e88f" stroke="#b5e88f" points="216,-240.603 220.5,-230.603 216,-235.603 216,-230.603 216,-230.603 216,-230.603 216,-235.603 211.5,-230.603 216,-240.603 216,-240.603"/>
</g>
<!-- Iteration&#45;&gt;Story -->
<g id="edge6" class="edge"><title>Iteration&#45;&gt;Story</title>
<path fill="none" stroke="#fcf531" d="M285.311,-456.886C291.373,-449.704 297.509,-442.435 303.573,-435.252"/>
<polygon fill="#fcf531" stroke="#fcf531" points="285.178,-457.044 275.289,-461.783 281.953,-460.865 278.727,-464.686 278.727,-464.686 278.727,-464.686 281.953,-460.865 282.166,-467.589 285.178,-457.044 285.178,-457.044"/>
<polygon fill="#fcf531" stroke="#fcf531" points="303.666,-435.141 313.555,-430.402 306.891,-431.32 310.116,-427.5 310.116,-427.5 310.116,-427.5 306.891,-431.32 306.677,-424.597 303.666,-435.141 303.666,-435.141"/>
</g>
<!-- Project -->
<g id="node4" class="node"><title>Project</title>
<polyline fill="none" stroke="black" points="236.436,-652.8 355.564,-652.8 "/>
<path fill="none" stroke="black" d="M355.564,-652.8C361.564,-652.8 367.564,-658.8 367.564,-664.8"/>
<polyline fill="none" stroke="black" points="367.564,-664.8 367.564,-791.2 "/>
<path fill="none" stroke="black" d="M367.564,-791.2C367.564,-797.2 361.564,-803.2 355.564,-803.2"/>
<polyline fill="none" stroke="black" points="355.564,-803.2 236.436,-803.2 "/>
<path fill="none" stroke="black" d="M236.436,-803.2C230.436,-803.2 224.436,-797.2 224.436,-791.2"/>
<polyline fill="none" stroke="black" points="224.436,-791.2 224.436,-664.8 "/>
<path fill="none" stroke="black" d="M224.436,-664.8C224.436,-658.8 230.436,-652.8 236.436,-652.8"/>
<text text-anchor="middle" x="296" y="-785.2" font-family="Times,serif" font-size="14.00">Project</text>
<polyline fill="none" stroke="black" points="224.436,-778.4 367.564,-778.4 "/>
<text text-anchor="start" x="232.436" y="-760.4" font-family="Times,serif" font-size="14.00">name :string</text>
<text text-anchor="start" x="232.436" y="-743.6" font-family="Times,serif" font-size="14.00">description :text</text>
<text text-anchor="start" x="232.436" y="-726.8" font-family="Times,serif" font-size="14.00">go_live :datetime</text>
<text text-anchor="start" x="232.436" y="-710" font-family="Times,serif" font-size="14.00">created_at :datetime</text>
<text text-anchor="start" x="232.436" y="-693.2" font-family="Times,serif" font-size="14.00">updated_at :datetime</text>
<text text-anchor="start" x="232.436" y="-676.4" font-family="Times,serif" font-size="14.00">current_points :integer</text>
<text text-anchor="start" x="232.436" y="-659.6" font-family="Times,serif" font-size="14.00">total_points :integer</text>
</g>
<!-- Project&#45;&gt;Difficulty -->
<g id="edge14" class="edge"><title>Project&#45;&gt;Difficulty</title>
<path fill="none" stroke="#d99f5f" d="M331.153,-645.27C339.057,-626.893 347.218,-607.919 354.375,-591.277"/>
<ellipse fill="none" stroke="#d99f5f" cx="329.543" cy="-649.011" rx="4.00002" ry="4.00002"/>
<polygon fill="#d99f5f" stroke="#d99f5f" points="354.513,-590.957 362.598,-583.548 356.489,-586.364 358.464,-581.77 358.464,-581.77 358.464,-581.77 356.489,-586.364 354.33,-579.992 354.513,-590.957 354.513,-590.957"/>
</g>
<!-- Project&#45;&gt;Iteration -->
<g id="edge10" class="edge"><title>Project&#45;&gt;Iteration</title>
<path fill="none" stroke="#67c94f" d="M260.807,-645.177C257.888,-638.389 254.934,-631.521 252.008,-624.719"/>
<ellipse fill="none" stroke="#67c94f" cx="262.457" cy="-649.011" rx="4.00002" ry="4.00002"/>
<polygon fill="#67c94f" stroke="#67c94f" points="251.994,-624.686 252.177,-613.721 250.018,-620.093 248.043,-615.5 248.043,-615.5 248.043,-615.5 250.018,-620.093 243.909,-617.278 251.994,-624.686 251.994,-624.686"/>
</g>
<!-- Status -->
<g id="node5" class="node"><title>Status</title>
<polyline fill="none" stroke="black" points="62.4946,-310.4 171.505,-310.4 "/>
<path fill="none" stroke="black" d="M171.505,-310.4C177.505,-310.4 183.505,-316.4 183.505,-322.4"/>
<polyline fill="none" stroke="black" points="183.505,-322.4 183.505,-381.6 "/>
<path fill="none" stroke="black" d="M183.505,-381.6C183.505,-387.6 177.505,-393.6 171.505,-393.6"/>
<polyline fill="none" stroke="black" points="171.505,-393.6 62.4946,-393.6 "/>
<path fill="none" stroke="black" d="M62.4946,-393.6C56.4946,-393.6 50.4946,-387.6 50.4946,-381.6"/>
<polyline fill="none" stroke="black" points="50.4946,-381.6 50.4946,-322.4 "/>
<path fill="none" stroke="black" d="M50.4946,-322.4C50.4946,-316.4 56.4946,-310.4 62.4946,-310.4"/>
<text text-anchor="middle" x="117" y="-375.6" font-family="Times,serif" font-size="14.00">Status</text>
<polyline fill="none" stroke="black" points="50.4946,-368.8 183.505,-368.8 "/>
<text text-anchor="start" x="58.4946" y="-350.8" font-family="Times,serif" font-size="14.00">value :string</text>
<text text-anchor="start" x="58.4946" y="-334" font-family="Times,serif" font-size="14.00">created_at :datetime</text>
<text text-anchor="start" x="58.4946" y="-317.2" font-family="Times,serif" font-size="14.00">updated_at :datetime</text>
</g>
<!-- Project&#45;&gt;Status -->
<g id="edge12" class="edge"><title>Project&#45;&gt;Status</title>
<path fill="none" stroke="#81ce15" d="M217.286,-653.514C216.524,-653.002 215.762,-652.497 215,-652 181.325,-630.028 155.01,-648.974 132,-616 88.2998,-553.376 95.2247,-460.558 105.326,-403.576"/>
<ellipse fill="none" stroke="#81ce15" cx="220.837" cy="-656" rx="4.00002" ry="4.00002"/>
<polygon fill="#81ce15" stroke="#81ce15" points="105.332,-403.543 111.593,-394.54 106.251,-398.628 107.169,-393.714 107.169,-393.714 107.169,-393.714 106.251,-398.628 102.746,-392.887 105.332,-403.543 105.332,-403.543"/>
</g>
<!-- Project&#45;&gt;Story -->
<g id="edge8" class="edge"><title>Project&#45;&gt;Story</title>
<path fill="none" stroke="#32c02d" d="M374.877,-690.635C404.346,-672.663 434.615,-647.887 451,-616 481.876,-555.913 471.368,-528.412 451,-464 448.017,-454.568 443.914,-445.243 439.138,-436.244"/>
<ellipse fill="none" stroke="#32c02d" cx="371.252" cy="-692.786" rx="4.00002" ry="4.00002"/>
<polygon fill="#32c02d" stroke="#32c02d" points="439.047,-436.083 438.079,-425.16 436.601,-431.723 434.154,-427.362 434.154,-427.362 434.154,-427.362 436.601,-431.723 430.23,-429.564 439.047,-436.083 439.047,-436.083"/>
</g>
<!-- Status&#45;&gt;StoriesInIteration -->
<g id="edge16" class="edge"><title>Status&#45;&gt;StoriesInIteration</title>
<path fill="none" stroke="#63d168" d="M146.302,-303.347C158.745,-283.112 173.243,-259.535 185.783,-239.141"/>
<ellipse fill="none" stroke="#63d168" cx="144.077" cy="-306.966" rx="4.00002" ry="4.00002"/>
<polygon fill="#63d168" stroke="#63d168" points="185.788,-239.133 194.859,-232.971 188.407,-234.873 191.026,-230.614 191.026,-230.614 191.026,-230.614 188.407,-234.873 187.193,-228.257 185.788,-239.133 185.788,-239.133"/>
</g>
<!-- Story&#45;&gt;StoriesInIteration -->
<g id="edge18" class="edge"><title>Story&#45;&gt;StoriesInIteration</title>
<path fill="none" stroke="#1a9e8a" d="M294.68,-270.684C283.79,-259.517 272.896,-248.345 262.835,-238.028"/>
<ellipse fill="none" stroke="#1a9e8a" cx="297.682" cy="-273.763" rx="4.00002" ry="4.00002"/>
<polygon fill="#1a9e8a" stroke="#1a9e8a" points="262.65,-237.839 258.89,-227.537 259.159,-234.259 255.668,-230.679 255.668,-230.679 255.668,-230.679 259.159,-234.259 252.447,-233.821 262.65,-237.839 262.65,-237.839"/>
</g>
<!-- Task -->
<g id="node8" class="node"><title>Task</title>
<polyline fill="none" stroke="black" points="363.495,-1 472.505,-1 "/>
<path fill="none" stroke="black" d="M472.505,-1C478.505,-1 484.505,-7 484.505,-13"/>
<polyline fill="none" stroke="black" points="484.505,-13 484.505,-89 "/>
<path fill="none" stroke="black" d="M484.505,-89C484.505,-95 478.505,-101 472.505,-101"/>
<polyline fill="none" stroke="black" points="472.505,-101 363.495,-101 "/>
<path fill="none" stroke="black" d="M363.495,-101C357.495,-101 351.495,-95 351.495,-89"/>
<polyline fill="none" stroke="black" points="351.495,-89 351.495,-13 "/>
<path fill="none" stroke="black" d="M351.495,-13C351.495,-7 357.495,-1 363.495,-1"/>
<text text-anchor="middle" x="418" y="-83" font-family="Times,serif" font-size="14.00">Task</text>
<polyline fill="none" stroke="black" points="351.495,-76.2 484.505,-76.2 "/>
<text text-anchor="start" x="359.495" y="-58.2" font-family="Times,serif" font-size="14.00">name :string</text>
<text text-anchor="start" x="359.495" y="-41.4" font-family="Times,serif" font-size="14.00">description :text</text>
<text text-anchor="start" x="359.495" y="-24.6" font-family="Times,serif" font-size="14.00">created_at :datetime</text>
<text text-anchor="start" x="359.495" y="-7.8" font-family="Times,serif" font-size="14.00">updated_at :datetime</text>
</g>
<!-- Story&#45;&gt;Task -->
<g id="edge20" class="edge"><title>Story&#45;&gt;Task</title>
<path fill="none" stroke="#e0aecb" d="M433.952,-269.363C438.833,-259.831 443.022,-249.948 446,-240 458.64,-197.777 450.469,-148.437 439.761,-110.9"/>
<ellipse fill="none" stroke="#e0aecb" cx="431.979" cy="-273.052" rx="4.00002" ry="4.00002"/>
<polygon fill="#e0aecb" stroke="#e0aecb" points="439.706,-110.715 441.155,-99.8451 438.275,-105.924 436.843,-101.133 436.843,-101.133 436.843,-101.133 438.275,-105.924 432.532,-102.422 439.706,-110.715 439.706,-110.715"/>
</g>
<!-- Team -->
<g id="node9" class="node"><title>Team</title>
<polyline fill="none" stroke="black" points="316.495,-139 425.505,-139 "/>
<path fill="none" stroke="black" d="M425.505,-139C431.505,-139 437.505,-145 437.505,-151"/>
<polyline fill="none" stroke="black" points="437.505,-151 437.505,-227 "/>
<path fill="none" stroke="black" d="M437.505,-227C437.505,-233 431.505,-239 425.505,-239"/>
<polyline fill="none" stroke="black" points="425.505,-239 316.495,-239 "/>
<path fill="none" stroke="black" d="M316.495,-239C310.495,-239 304.495,-233 304.495,-227"/>
<polyline fill="none" stroke="black" points="304.495,-227 304.495,-151 "/>
<path fill="none" stroke="black" d="M304.495,-151C304.495,-145 310.495,-139 316.495,-139"/>
<text text-anchor="middle" x="371" y="-221" font-family="Times,serif" font-size="14.00">Team</text>
<polyline fill="none" stroke="black" points="304.495,-214.2 437.505,-214.2 "/>
<text text-anchor="start" x="312.495" y="-196.2" font-family="Times,serif" font-size="14.00">name :string</text>
<text text-anchor="start" x="312.495" y="-179.4" font-family="Times,serif" font-size="14.00">description :text</text>
<text text-anchor="start" x="312.495" y="-162.6" font-family="Times,serif" font-size="14.00">created_at :datetime</text>
<text text-anchor="start" x="312.495" y="-145.8" font-family="Times,serif" font-size="14.00">updated_at :datetime</text>
</g>
<!-- Story&#45;&gt;Team -->
<g id="edge22" class="edge"><title>Story&#45;&gt;Team</title>
<path fill="none" stroke="#b9758e" d="M371.95,-266.496C371.88,-260.809 371.809,-255.15 371.741,-249.63"/>
<polygon fill="#b9758e" stroke="#b9758e" points="371.952,-266.627 367.576,-276.683 372.014,-271.627 372.076,-276.627 372.076,-276.627 372.076,-276.627 372.014,-271.627 376.576,-276.571 371.952,-266.627 371.952,-266.627"/>
<polygon fill="#b9758e" stroke="#b9758e" points="371.736,-249.219 376.111,-239.164 371.674,-244.219 371.611,-239.22 371.611,-239.22 371.611,-239.22 371.674,-244.219 367.112,-239.275 371.736,-249.219 371.736,-249.219"/>
</g>
<!-- Team&#45;&gt;Task -->
<g id="edge24" class="edge"><title>Team&#45;&gt;Task</title>
<path fill="none" stroke="#7bb18e" d="M390.597,-131.294C392.932,-124.538 395.319,-117.63 397.664,-110.846"/>
<ellipse fill="none" stroke="#7bb18e" cx="389.275" cy="-135.12" rx="4.00001" ry="4.00001"/>
<polygon fill="#7bb18e" stroke="#7bb18e" points="397.79,-110.479 405.31,-102.497 399.424,-105.753 401.057,-101.027 401.057,-101.027 401.057,-101.027 399.424,-105.753 396.804,-99.5572 397.79,-110.479 397.79,-110.479"/>
</g>
</g>
</svg>
