<?xml version="1.0" encoding="UTF-8" standalone="no"?>
<!DOCTYPE svg PUBLIC "-//W3C//DTD SVG 1.1//EN"
 "http://www.w3.org/Graphics/SVG/1.1/DTD/svg11.dtd">
<!-- Generated by graphviz version 2.28.0 (20111028.1807)
 -->
<!-- Title: models_diagram Pages: 1 -->
<svg width="408pt" height="382pt"
 viewBox="0.00 0.00 408.00 382.00" xmlns="http://www.w3.org/2000/svg" xmlns:xlink="http://www.w3.org/1999/xlink">
<g id="graph1" class="graph" transform="scale(1 1) rotate(0) translate(4 378)">
<title>models_diagram</title>
<polygon fill="white" stroke="white" points="-4,5 -4,-378 405,-378 405,5 -4,5"/>
<!-- _diagram_info -->
<g id="node1" class="node"><title>_diagram_info</title>
<text text-anchor="start" x="7.31226" y="-357" font-family="Times,serif" font-size="13.00">Models diagram</text>
<text text-anchor="start" x="7.31226" y="-341.4" font-family="Times,serif" font-size="13.00">Date: May 29 2012 &#45; 18:52</text>
<text text-anchor="start" x="7.31226" y="-325.8" font-family="Times,serif" font-size="13.00">Migration version: 20120406165047</text>
<text text-anchor="start" x="7.31226" y="-310.2" font-family="Times,serif" font-size="13.00">Generated by RailRoady 1.0.7</text>
<text text-anchor="start" x="7.31226" y="-294.6" font-family="Times,serif" font-size="13.00">http://railroady.prestonlee.com</text>
</g>
<!-- Iteration -->
<g id="node2" class="node"><title>Iteration</title>
<ellipse fill="none" stroke="black" cx="227" cy="-234" rx="43.6191" ry="18"/>
<text text-anchor="middle" x="227" y="-228.4" font-family="Times,serif" font-size="14.00">Iteration</text>
</g>
<!-- StoriesInIteration -->
<g id="node4" class="node"><title>StoriesInIteration</title>
<ellipse fill="none" stroke="black" cx="201" cy="-90" rx="78.4241" ry="18"/>
<text text-anchor="middle" x="201" y="-84.4" font-family="Times,serif" font-size="14.00">StoriesInIteration</text>
</g>
<!-- Iteration&#45;&gt;StoriesInIteration -->
<g id="edge2" class="edge"><title>Iteration&#45;&gt;StoriesInIteration</title>
<path fill="none" stroke="#f3f658" d="M222.409,-207.929C217.795,-182.725 210.703,-143.994 205.961,-118.095"/>
<ellipse fill="none" stroke="#f3f658" cx="223.143" cy="-211.937" rx="4.00001" ry="4.00001"/>
<polygon fill="#f3f658" stroke="#f3f658" points="205.948,-118.026 208.574,-107.379 205.048,-113.108 204.147,-108.189 204.147,-108.189 204.147,-108.189 205.048,-113.108 199.721,-109 205.948,-118.026 205.948,-118.026"/>
</g>
<!-- Story -->
<g id="node5" class="node"><title>Story</title>
<ellipse fill="none" stroke="black" cx="299" cy="-162" rx="31.4451" ry="18"/>
<text text-anchor="middle" x="299" y="-156.4" font-family="Times,serif" font-size="14.00">Story</text>
</g>
<!-- Iteration&#45;&gt;Story -->
<g id="edge4" class="edge"><title>Iteration&#45;&gt;Story</title>
<path fill="none" stroke="#195be5" d="M250.546,-210.108C258.89,-201.996 268.251,-192.895 276.504,-184.871"/>
<polygon fill="#195be5" stroke="#195be5" points="250.508,-210.145 240.201,-213.889 246.923,-213.631 243.338,-217.116 243.338,-217.116 243.338,-217.116 246.923,-213.631 246.475,-220.342 250.508,-210.145 250.508,-210.145"/>
<polygon fill="#195be5" stroke="#195be5" points="276.541,-184.835 286.848,-181.09 280.126,-181.349 283.711,-177.864 283.711,-177.864 283.711,-177.864 280.126,-181.349 280.575,-174.637 276.541,-184.835 276.541,-184.835"/>
</g>
<!-- Project -->
<g id="node3" class="node"><title>Project</title>
<ellipse fill="none" stroke="black" cx="263" cy="-331" rx="38.0859" ry="18"/>
<text text-anchor="middle" x="263" y="-325.4" font-family="Times,serif" font-size="14.00">Project</text>
</g>
<!-- Project&#45;&gt;Iteration -->
<g id="edge8" class="edge"><title>Project&#45;&gt;Iteration</title>
<path fill="none" stroke="#3a4987" d="M253.609,-305.218C248.485,-291.697 242.144,-274.964 236.937,-261.224"/>
<ellipse fill="none" stroke="#3a4987" cx="255.146" cy="-309.275" rx="4.00001" ry="4.00001"/>
<polygon fill="#3a4987" stroke="#3a4987" points="236.924,-261.188 237.588,-250.242 235.152,-256.513 233.38,-251.837 233.38,-251.837 233.38,-251.837 235.152,-256.513 229.172,-253.432 236.924,-261.188 236.924,-261.188"/>
</g>
<!-- Project&#45;&gt;Story -->
<g id="edge6" class="edge"><title>Project&#45;&gt;Story</title>
<path fill="none" stroke="#32c084" d="M268.406,-304.923C275.073,-273.995 286.361,-221.629 293.204,-189.889"/>
<ellipse fill="none" stroke="#32c084" cx="267.493" cy="-309.158" rx="4.00001" ry="4.00001"/>
<polygon fill="#32c084" stroke="#32c084" points="293.233,-189.752 299.739,-180.925 294.287,-184.864 295.34,-179.977 295.34,-179.977 295.34,-179.977 294.287,-184.864 290.941,-179.028 293.233,-189.752 293.233,-189.752"/>
</g>
<!-- Story&#45;&gt;StoriesInIteration -->
<g id="edge10" class="edge"><title>Story&#45;&gt;StoriesInIteration</title>
<path fill="none" stroke="#76d410" d="M273.382,-142.701C260.825,-133.732 245.592,-122.851 232.346,-113.39"/>
<ellipse fill="none" stroke="#76d410" cx="276.85" cy="-145.178" rx="4.00002" ry="4.00002"/>
<polygon fill="#76d410" stroke="#76d410" points="232.114,-113.224 226.592,-103.75 228.045,-110.318 223.977,-107.412 223.977,-107.412 223.977,-107.412 228.045,-110.318 221.361,-111.074 232.114,-113.224 232.114,-113.224"/>
</g>
<!-- Task -->
<g id="node6" class="node"><title>Task</title>
<ellipse fill="none" stroke="black" cx="338" cy="-18" rx="29.2011" ry="18"/>
<text text-anchor="middle" x="338" y="-12.4" font-family="Times,serif" font-size="14.00">Task</text>
</g>
<!-- Story&#45;&gt;Task -->
<g id="edge12" class="edge"><title>Story&#45;&gt;Task</title>
<path fill="none" stroke="#a4edfc" d="M305.815,-136.187C312.766,-110.878 323.517,-71.7346 330.654,-45.7468"/>
<ellipse fill="none" stroke="#a4edfc" cx="304.686" cy="-140.296" rx="4.00001" ry="4.00001"/>
<polygon fill="#a4edfc" stroke="#a4edfc" points="330.731,-45.4679 337.718,-37.0168 332.055,-40.6464 333.379,-35.825 333.379,-35.825 333.379,-35.825 332.055,-40.6464 329.04,-34.6331 330.731,-45.4679 330.731,-45.4679"/>
</g>
<!-- Team -->
<g id="node7" class="node"><title>Team</title>
<ellipse fill="none" stroke="black" cx="368" cy="-90" rx="32.019" ry="18"/>
<text text-anchor="middle" x="368" y="-84.4" font-family="Times,serif" font-size="14.00">Team</text>
</g>
<!-- Story&#45;&gt;Team -->
<g id="edge14" class="edge"><title>Story&#45;&gt;Team</title>
<path fill="none" stroke="#974b70" d="M321.188,-138.49C329.003,-130.563 337.786,-121.651 345.616,-113.708"/>
<polygon fill="#974b70" stroke="#974b70" points="320.992,-138.689 310.767,-142.652 317.482,-142.25 313.972,-145.811 313.972,-145.811 313.972,-145.811 317.482,-142.25 317.177,-148.97 320.992,-138.689 320.992,-138.689"/>
<polygon fill="#974b70" stroke="#974b70" points="346.037,-113.281 356.262,-109.318 349.547,-109.72 353.057,-106.159 353.057,-106.159 353.057,-106.159 349.547,-109.72 349.852,-103 346.037,-113.281 346.037,-113.281"/>
</g>
<!-- Team&#45;&gt;Task -->
<g id="edge16" class="edge"><title>Team&#45;&gt;Task</title>
<path fill="none" stroke="#17c455" d="M357.693,-64.9496C354.894,-58.4184 351.852,-51.3217 349.016,-44.7031"/>
<ellipse fill="none" stroke="#17c455" cx="359.315" cy="-68.7344" rx="4.00002" ry="4.00002"/>
<polygon fill="#17c455" stroke="#17c455" points="348.998,-44.6614 349.195,-33.6973 347.028,-40.0657 345.059,-35.4699 345.059,-35.4699 345.059,-35.4699 347.028,-40.0657 340.922,-37.2426 348.998,-44.6614 348.998,-44.6614"/>
</g>
</g>
</svg>
