<?xml version="1.0" encoding="UTF-8" standalone="no"?>
<!DOCTYPE svg PUBLIC "-//W3C//DTD SVG 1.1//EN"
 "http://www.w3.org/Graphics/SVG/1.1/DTD/svg11.dtd">
<!-- Generated by graphviz version 2.28.0 (20111028.1807)
 -->
<!-- Title: models_diagram Pages: 1 -->
<svg width="388pt" height="382pt"
 viewBox="0.00 0.00 388.30 382.00" xmlns="http://www.w3.org/2000/svg" xmlns:xlink="http://www.w3.org/1999/xlink">
<g id="graph1" class="graph" transform="scale(1 1) rotate(0) translate(4 378)">
<title>models_diagram</title>
<polygon fill="white" stroke="white" points="-4,5 -4,-378 385.301,-378 385.301,5 -4,5"/>
<!-- _diagram_info -->
<g id="node1" class="node"><title>_diagram_info</title>
<text text-anchor="start" x="7.31226" y="-357" font-family="Times,serif" font-size="13.00">Models diagram</text>
<text text-anchor="start" x="7.31226" y="-341.4" font-family="Times,serif" font-size="13.00">Date: Jun 12 2012 &#45; 19:19</text>
<text text-anchor="start" x="7.31226" y="-325.8" font-family="Times,serif" font-size="13.00">Migration version: 20120610102815</text>
<text text-anchor="start" x="7.31226" y="-310.2" font-family="Times,serif" font-size="13.00">Generated by RailRoady 1.0.7</text>
<text text-anchor="start" x="7.31226" y="-294.6" font-family="Times,serif" font-size="13.00">http://railroady.prestonlee.com</text>
</g>
<!-- Difficulty -->
<g id="node2" class="node"><title>Difficulty</title>
<ellipse fill="none" stroke="black" cx="318" cy="-234" rx="48.3834" ry="18"/>
<text text-anchor="middle" x="318" y="-228.4" font-family="Times,serif" font-size="14.00">Difficulty</text>
</g>
<!-- Story -->
<g id="node7" class="node"><title>Story</title>
<ellipse fill="none" stroke="black" cx="318" cy="-162" rx="31.4451" ry="18"/>
<text text-anchor="middle" x="318" y="-156.4" font-family="Times,serif" font-size="14.00">Story</text>
</g>
<!-- Difficulty&#45;&gt;Story -->
<g id="edge2" class="edge"><title>Difficulty&#45;&gt;Story</title>
<path fill="none" stroke="#f35ddd" d="M318,-207.64C318,-202.063 318,-196.132 318,-190.476"/>
<ellipse fill="none" stroke="#f35ddd" cx="318" cy="-211.697" rx="4" ry="4"/>
<polygon fill="#f35ddd" stroke="#f35ddd" points="318,-190.104 322.5,-180.104 318,-185.104 318,-180.104 318,-180.104 318,-180.104 318,-185.104 313.5,-180.104 318,-190.104 318,-190.104"/>
</g>
<!-- Iteration -->
<g id="node3" class="node"><title>Iteration</title>
<ellipse fill="none" stroke="black" cx="208" cy="-234" rx="43.6191" ry="18"/>
<text text-anchor="middle" x="208" y="-228.4" font-family="Times,serif" font-size="14.00">Iteration</text>
</g>
<!-- StoriesInIteration -->
<g id="node6" class="node"><title>StoriesInIteration</title>
<ellipse fill="none" stroke="black" cx="189" cy="-90" rx="78.4241" ry="18"/>
<text text-anchor="middle" x="189" y="-84.4" font-family="Times,serif" font-size="14.00">StoriesInIteration</text>
</g>
<!-- Iteration&#45;&gt;StoriesInIteration -->
<g id="edge4" class="edge"><title>Iteration&#45;&gt;StoriesInIteration</title>
<path fill="none" stroke="#b3e92c" d="M204.645,-207.929C201.288,-182.837 196.137,-144.338 192.672,-118.441"/>
<ellipse fill="none" stroke="#b3e92c" cx="205.178" cy="-211.907" rx="4.00001" ry="4.00001"/>
<polygon fill="#b3e92c" stroke="#b3e92c" points="192.626,-118.101 195.76,-107.592 191.963,-113.145 191.3,-108.189 191.3,-108.189 191.3,-108.189 191.963,-113.145 186.84,-108.786 192.626,-118.101 192.626,-118.101"/>
</g>
<!-- Iteration&#45;&gt;Story -->
<g id="edge6" class="edge"><title>Iteration&#45;&gt;Story</title>
<path fill="none" stroke="#a1d1e3" d="M239.331,-213.062C255.038,-203.066 273.929,-191.045 289.261,-181.288"/>
<polygon fill="#a1d1e3" stroke="#a1d1e3" points="239.229,-213.127 228.376,-214.699 235.01,-215.812 230.792,-218.496 230.792,-218.496 230.792,-218.496 235.01,-215.812 233.208,-222.292 239.229,-213.127 239.229,-213.127"/>
<polygon fill="#a1d1e3" stroke="#a1d1e3" points="289.39,-181.207 300.242,-179.634 293.608,-178.522 297.826,-175.838 297.826,-175.838 297.826,-175.838 293.608,-178.522 295.41,-172.041 289.39,-181.207 289.39,-181.207"/>
</g>
<!-- Project -->
<g id="node4" class="node"><title>Project</title>
<ellipse fill="none" stroke="black" cx="263" cy="-331" rx="38.0859" ry="18"/>
<text text-anchor="middle" x="263" y="-325.4" font-family="Times,serif" font-size="14.00">Project</text>
</g>
<!-- Project&#45;&gt;Difficulty -->
<g id="edge14" class="edge"><title>Project&#45;&gt;Difficulty</title>
<path fill="none" stroke="#71dfd7" d="M276.85,-306.078C284.911,-292.153 295.069,-274.608 303.276,-260.433"/>
<ellipse fill="none" stroke="#71dfd7" cx="274.584" cy="-309.991" rx="4.00002" ry="4.00002"/>
<polygon fill="#71dfd7" stroke="#71dfd7" points="303.335,-260.331 312.239,-253.932 305.84,-256.004 308.345,-251.677 308.345,-251.677 308.345,-251.677 305.84,-256.004 304.451,-249.422 303.335,-260.331 303.335,-260.331"/>
</g>
<!-- Project&#45;&gt;Iteration -->
<g id="edge10" class="edge"><title>Project&#45;&gt;Iteration</title>
<path fill="none" stroke="#221327" d="M249.15,-306.078C241.089,-292.153 230.931,-274.608 222.724,-260.433"/>
<ellipse fill="none" stroke="#221327" cx="251.416" cy="-309.991" rx="4.00002" ry="4.00002"/>
<polygon fill="#221327" stroke="#221327" points="222.665,-260.331 221.549,-249.422 220.16,-256.004 217.655,-251.677 217.655,-251.677 217.655,-251.677 220.16,-256.004 213.761,-253.932 222.665,-260.331 222.665,-260.331"/>
</g>
<!-- Status -->
<g id="node5" class="node"><title>Status</title>
<ellipse fill="none" stroke="black" cx="138" cy="-162" rx="34.4683" ry="18"/>
<text text-anchor="middle" x="138" y="-156.4" font-family="Times,serif" font-size="14.00">Status</text>
</g>
<!-- Project&#45;&gt;Status -->
<g id="edge12" class="edge"><title>Project&#45;&gt;Status</title>
<path fill="none" stroke="#d8ea40" d="M240.468,-308.813C232.652,-301.867 223.67,-294.317 215,-288 189.865,-269.688 172.804,-277.498 155,-252 142.444,-234.019 138.522,-209.227 137.554,-190.376"/>
<ellipse fill="none" stroke="#d8ea40" cx="243.758" cy="-311.784" rx="4.00002" ry="4.00002"/>
<polygon fill="#d8ea40" stroke="#d8ea40" points="137.553,-190.324 141.781,-180.206 137.418,-185.325 137.283,-180.327 137.283,-180.327 137.283,-180.327 137.418,-185.325 132.784,-180.449 137.553,-190.324 137.553,-190.324"/>
</g>
<!-- Project&#45;&gt;Story -->
<g id="edge8" class="edge"><title>Project&#45;&gt;Story</title>
<path fill="none" stroke="#1bdce2" d="M299.344,-315.71C325.622,-303.22 359.178,-282.3 375,-252 382.406,-237.817 381.391,-230.668 375,-216 369.108,-202.476 357.875,-190.848 346.928,-181.958"/>
<ellipse fill="none" stroke="#1bdce2" cx="295.435" cy="-317.498" rx="4.00002" ry="4.00002"/>
<polygon fill="#1bdce2" stroke="#1bdce2" points="346.667,-181.76 341.429,-172.126 342.687,-178.734 338.706,-175.708 338.706,-175.708 338.706,-175.708 342.687,-178.734 335.983,-179.29 346.667,-181.76 346.667,-181.76"/>
</g>
<!-- Status&#45;&gt;StoriesInIteration -->
<g id="edge16" class="edge"><title>Status&#45;&gt;StoriesInIteration</title>
<path fill="none" stroke="#0fa04b" d="M154.567,-138.261C159.698,-131.219 165.381,-123.418 170.626,-116.219"/>
<ellipse fill="none" stroke="#0fa04b" cx="152.184" cy="-141.532" rx="4.00002" ry="4.00002"/>
<polygon fill="#0fa04b" stroke="#0fa04b" points="170.635,-116.206 180.161,-110.774 173.58,-112.165 176.524,-108.124 176.524,-108.124 176.524,-108.124 173.58,-112.165 172.887,-105.474 170.635,-116.206 170.635,-116.206"/>
</g>
<!-- Story&#45;&gt;StoriesInIteration -->
<g id="edge18" class="edge"><title>Story&#45;&gt;StoriesInIteration</title>
<path fill="none" stroke="#1681fa" d="M288.682,-145.091C270.455,-135.2 246.826,-122.379 227.149,-111.701"/>
<ellipse fill="none" stroke="#1681fa" cx="292.308" cy="-147.059" rx="4.00002" ry="4.00002"/>
<polygon fill="#1681fa" stroke="#1681fa" points="226.924,-111.579 220.281,-102.854 222.53,-109.194 218.135,-106.81 218.135,-106.81 218.135,-106.81 222.53,-109.194 215.989,-110.765 226.924,-111.579 226.924,-111.579"/>
</g>
<!-- Task -->
<g id="node8" class="node"><title>Task</title>
<ellipse fill="none" stroke="black" cx="348" cy="-18" rx="29.2011" ry="18"/>
<text text-anchor="middle" x="348" y="-12.4" font-family="Times,serif" font-size="14.00">Task</text>
</g>
<!-- Story&#45;&gt;Task -->
<g id="edge20" class="edge"><title>Story&#45;&gt;Task</title>
<path fill="none" stroke="#f79e05" d="M339.579,-139.81C347.267,-130.807 355.005,-119.693 359,-108 365.933,-87.7078 362.221,-63.4881 357.313,-45.4411"/>
<ellipse fill="none" stroke="#f79e05" cx="336.718" cy="-142.994" rx="4.00002" ry="4.00002"/>
<polygon fill="#f79e05" stroke="#f79e05" points="357.312,-45.4385 358.75,-34.5673 355.876,-40.6493 354.439,-35.86 354.439,-35.86 354.439,-35.86 355.876,-40.6493 350.129,-37.1527 357.312,-45.4385 357.312,-45.4385"/>
</g>
<!-- Team -->
<g id="node9" class="node"><title>Team</title>
<ellipse fill="none" stroke="black" cx="318" cy="-90" rx="32.019" ry="18"/>
<text text-anchor="middle" x="318" y="-84.4" font-family="Times,serif" font-size="14.00">Team</text>
</g>
<!-- Story&#45;&gt;Team -->
<g id="edge22" class="edge"><title>Story&#45;&gt;Team</title>
<path fill="none" stroke="#6e8939" d="M318,-133.665C318,-128.687 318,-123.491 318,-118.507"/>
<polygon fill="#6e8939" stroke="#6e8939" points="318,-133.697 313.5,-143.697 318,-138.697 318,-143.697 318,-143.697 318,-143.697 318,-138.697 322.5,-143.697 318,-133.697 318,-133.697"/>
<polygon fill="#6e8939" stroke="#6e8939" points="318,-118.104 322.5,-108.104 318,-113.104 318,-108.104 318,-108.104 318,-108.104 318,-113.104 313.5,-108.104 318,-118.104 318,-118.104"/>
</g>
<!-- Team&#45;&gt;Task -->
<g id="edge24" class="edge"><title>Team&#45;&gt;Task</title>
<path fill="none" stroke="#75b4f0" d="M328.307,-64.9496C331.106,-58.4184 334.148,-51.3217 336.984,-44.7031"/>
<ellipse fill="none" stroke="#75b4f0" cx="326.685" cy="-68.7344" rx="4.00002" ry="4.00002"/>
<polygon fill="#75b4f0" stroke="#75b4f0" points="337.002,-44.6614 345.078,-37.2426 338.972,-40.0657 340.941,-35.4699 340.941,-35.4699 340.941,-35.4699 338.972,-40.0657 336.805,-33.6973 337.002,-44.6614 337.002,-44.6614"/>
</g>
</g>
</svg>
