<?xml version="1.0" encoding="UTF-8" standalone="no"?>
<!DOCTYPE svg PUBLIC "-//W3C//DTD SVG 1.1//EN"
 "http://www.w3.org/Graphics/SVG/1.1/DTD/svg11.dtd">
<!-- Generated by graphviz version 2.28.0 (20111028.1807)
 -->
<!-- Title: models_diagram Pages: 1 -->
<svg width="505pt" height="760pt"
 viewBox="0.00 0.00 505.00 760.00" xmlns="http://www.w3.org/2000/svg" xmlns:xlink="http://www.w3.org/1999/xlink">
<g id="graph1" class="graph" transform="scale(1 1) rotate(0) translate(4 756)">
<title>models_diagram</title>
<polygon fill="white" stroke="white" points="-4,5 -4,-756 502,-756 502,5 -4,5"/>
<!-- _diagram_info -->
<g id="node1" class="node"><title>_diagram_info</title>
<text text-anchor="start" x="7.31226" y="-719" font-family="Times,serif" font-size="13.00">Models diagram</text>
<text text-anchor="start" x="7.31226" y="-703.4" font-family="Times,serif" font-size="13.00">Date: May 29 2012 &#45; 18:52</text>
<text text-anchor="start" x="7.31226" y="-687.8" font-family="Times,serif" font-size="13.00">Migration version: 20120406165047</text>
<text text-anchor="start" x="7.31226" y="-672.2" font-family="Times,serif" font-size="13.00">Generated by RailRoady 1.0.7</text>
<text text-anchor="start" x="7.31226" y="-656.6" font-family="Times,serif" font-size="13.00">http://railroady.prestonlee.com</text>
</g>
<!-- Iteration -->
<g id="node2" class="node"><title>Iteration</title>
<polyline fill="none" stroke="black" points="181.05,-480.6 300.95,-480.6 "/>
<path fill="none" stroke="black" d="M300.95,-480.6C306.95,-480.6 312.95,-486.6 312.95,-492.6"/>
<polyline fill="none" stroke="black" points="312.95,-492.6 312.95,-585.4 "/>
<path fill="none" stroke="black" d="M312.95,-585.4C312.95,-591.4 306.95,-597.4 300.95,-597.4"/>
<polyline fill="none" stroke="black" points="300.95,-597.4 181.05,-597.4 "/>
<path fill="none" stroke="black" d="M181.05,-597.4C175.05,-597.4 169.05,-591.4 169.05,-585.4"/>
<polyline fill="none" stroke="black" points="169.05,-585.4 169.05,-492.6 "/>
<path fill="none" stroke="black" d="M169.05,-492.6C169.05,-486.6 175.05,-480.6 181.05,-480.6"/>
<text text-anchor="middle" x="241" y="-579.4" font-family="Times,serif" font-size="14.00">Iteration</text>
<polyline fill="none" stroke="black" points="169.05,-572.6 312.95,-572.6 "/>
<text text-anchor="start" x="177.05" y="-554.6" font-family="Times,serif" font-size="14.00">starting_date :datetime</text>
<text text-anchor="start" x="177.05" y="-537.8" font-family="Times,serif" font-size="14.00">ending_date :datetime</text>
<text text-anchor="start" x="177.05" y="-521" font-family="Times,serif" font-size="14.00">notes :text</text>
<text text-anchor="start" x="177.05" y="-504.2" font-family="Times,serif" font-size="14.00">created_at :datetime</text>
<text text-anchor="start" x="177.05" y="-487.4" font-family="Times,serif" font-size="14.00">updated_at :datetime</text>
</g>
<!-- StoriesInIteration -->
<g id="node4" class="node"><title>StoriesInIteration</title>
<polyline fill="none" stroke="black" points="181.495,-155.8 290.505,-155.8 "/>
<path fill="none" stroke="black" d="M290.505,-155.8C296.505,-155.8 302.505,-161.8 302.505,-167.8"/>
<polyline fill="none" stroke="black" points="302.505,-167.8 302.505,-210.2 "/>
<path fill="none" stroke="black" d="M302.505,-210.2C302.505,-216.2 296.505,-222.2 290.505,-222.2"/>
<polyline fill="none" stroke="black" points="290.505,-222.2 181.495,-222.2 "/>
<path fill="none" stroke="black" d="M181.495,-222.2C175.495,-222.2 169.495,-216.2 169.495,-210.2"/>
<polyline fill="none" stroke="black" points="169.495,-210.2 169.495,-167.8 "/>
<path fill="none" stroke="black" d="M169.495,-167.8C169.495,-161.8 175.495,-155.8 181.495,-155.8"/>
<text text-anchor="middle" x="236" y="-204.2" font-family="Times,serif" font-size="14.00">StoriesInIteration</text>
<polyline fill="none" stroke="black" points="169.495,-197.4 302.505,-197.4 "/>
<text text-anchor="start" x="177.495" y="-179.4" font-family="Times,serif" font-size="14.00">created_at :datetime</text>
<text text-anchor="start" x="177.495" y="-162.6" font-family="Times,serif" font-size="14.00">updated_at :datetime</text>
</g>
<!-- Iteration&#45;&gt;StoriesInIteration -->
<g id="edge2" class="edge"><title>Iteration&#45;&gt;StoriesInIteration</title>
<path fill="none" stroke="#0510e3" d="M240.053,-472.117C239.043,-401.794 237.472,-292.443 236.613,-232.635"/>
<ellipse fill="none" stroke="#0510e3" cx="240.117" cy="-476.535" rx="4" ry="4"/>
<polygon fill="#0510e3" stroke="#0510e3" points="236.61,-232.416 240.965,-222.352 236.538,-227.416 236.466,-222.417 236.466,-222.417 236.466,-222.417 236.538,-227.416 231.966,-222.481 236.61,-232.416 236.61,-232.416"/>
</g>
<!-- Story -->
<g id="node5" class="node"><title>Story</title>
<polyline fill="none" stroke="black" points="265.881,-276.4 416.119,-276.4 "/>
<path fill="none" stroke="black" d="M416.119,-276.4C422.119,-276.4 428.119,-282.4 428.119,-288.4"/>
<polyline fill="none" stroke="black" points="428.119,-288.4 428.119,-431.6 "/>
<path fill="none" stroke="black" d="M428.119,-431.6C428.119,-437.6 422.119,-443.6 416.119,-443.6"/>
<polyline fill="none" stroke="black" points="416.119,-443.6 265.881,-443.6 "/>
<path fill="none" stroke="black" d="M265.881,-443.6C259.881,-443.6 253.881,-437.6 253.881,-431.6"/>
<polyline fill="none" stroke="black" points="253.881,-431.6 253.881,-288.4 "/>
<path fill="none" stroke="black" d="M253.881,-288.4C253.881,-282.4 259.881,-276.4 265.881,-276.4"/>
<text text-anchor="middle" x="341" y="-425.6" font-family="Times,serif" font-size="14.00">Story</text>
<polyline fill="none" stroke="black" points="253.881,-418.8 428.119,-418.8 "/>
<text text-anchor="start" x="261.881" y="-400.8" font-family="Times,serif" font-size="14.00">priority :integer</text>
<text text-anchor="start" x="261.881" y="-384" font-family="Times,serif" font-size="14.00">name :string</text>
<text text-anchor="start" x="261.881" y="-367.2" font-family="Times,serif" font-size="14.00">definition_of_done :text</text>
<text text-anchor="start" x="261.881" y="-350.4" font-family="Times,serif" font-size="14.00">category :string</text>
<text text-anchor="start" x="261.881" y="-333.6" font-family="Times,serif" font-size="14.00">estimated_difficulty :integer</text>
<text text-anchor="start" x="261.881" y="-316.8" font-family="Times,serif" font-size="14.00">status :string</text>
<text text-anchor="start" x="261.881" y="-300" font-family="Times,serif" font-size="14.00">created_at :datetime</text>
<text text-anchor="start" x="261.881" y="-283.2" font-family="Times,serif" font-size="14.00">updated_at :datetime</text>
</g>
<!-- Iteration&#45;&gt;Story -->
<g id="edge4" class="edge"><title>Iteration&#45;&gt;Story</title>
<path fill="none" stroke="#7f90bc" d="M278.508,-471.611C282.022,-465.391 285.624,-459.015 289.239,-452.617"/>
<polygon fill="#7f90bc" stroke="#7f90bc" points="278.386,-471.827 269.549,-478.32 275.927,-476.18 273.467,-480.533 273.467,-480.533 273.467,-480.533 275.927,-476.18 277.385,-482.747 278.386,-471.827 278.386,-471.827"/>
<polygon fill="#7f90bc" stroke="#7f90bc" points="289.249,-452.599 298.086,-446.106 291.709,-448.246 294.168,-443.892 294.168,-443.892 294.168,-443.892 291.709,-448.246 290.25,-441.679 289.249,-452.599 289.249,-452.599"/>
</g>
<!-- Project -->
<g id="node3" class="node"><title>Project</title>
<polyline fill="none" stroke="black" points="236.495,-634.6 345.505,-634.6 "/>
<path fill="none" stroke="black" d="M345.505,-634.6C351.505,-634.6 357.505,-640.6 357.505,-646.6"/>
<polyline fill="none" stroke="black" points="357.505,-646.6 357.505,-739.4 "/>
<path fill="none" stroke="black" d="M357.505,-739.4C357.505,-745.4 351.505,-751.4 345.505,-751.4"/>
<polyline fill="none" stroke="black" points="345.505,-751.4 236.495,-751.4 "/>
<path fill="none" stroke="black" d="M236.495,-751.4C230.495,-751.4 224.495,-745.4 224.495,-739.4"/>
<polyline fill="none" stroke="black" points="224.495,-739.4 224.495,-646.6 "/>
<path fill="none" stroke="black" d="M224.495,-646.6C224.495,-640.6 230.495,-634.6 236.495,-634.6"/>
<text text-anchor="middle" x="291" y="-733.4" font-family="Times,serif" font-size="14.00">Project</text>
<polyline fill="none" stroke="black" points="224.495,-726.6 357.505,-726.6 "/>
<text text-anchor="start" x="232.495" y="-708.6" font-family="Times,serif" font-size="14.00">name :string</text>
<text text-anchor="start" x="232.495" y="-691.8" font-family="Times,serif" font-size="14.00">description :text</text>
<text text-anchor="start" x="232.495" y="-675" font-family="Times,serif" font-size="14.00">go_live :datetime</text>
<text text-anchor="start" x="232.495" y="-658.2" font-family="Times,serif" font-size="14.00">created_at :datetime</text>
<text text-anchor="start" x="232.495" y="-641.4" font-family="Times,serif" font-size="14.00">updated_at :datetime</text>
</g>
<!-- Project&#45;&gt;Iteration -->
<g id="edge8" class="edge"><title>Project&#45;&gt;Iteration</title>
<path fill="none" stroke="#66a958" d="M269.552,-626.798C267.402,-620.262 265.216,-613.617 263.06,-607.062"/>
<ellipse fill="none" stroke="#66a958" cx="270.847" cy="-630.736" rx="4.00001" ry="4.00001"/>
<polygon fill="#66a958" stroke="#66a958" points="263.054,-607.045 264.204,-596.14 261.492,-602.296 259.93,-597.546 259.93,-597.546 259.93,-597.546 261.492,-602.296 255.655,-598.952 263.054,-607.045 263.054,-607.045"/>
</g>
<!-- Project&#45;&gt;Story -->
<g id="edge6" class="edge"><title>Project&#45;&gt;Story</title>
<path fill="none" stroke="#02c3ca" d="M313.969,-626.481C316.684,-617.013 319.144,-607.319 321,-598 330.37,-550.943 335.355,-497.776 338.004,-453.741"/>
<ellipse fill="none" stroke="#02c3ca" cx="312.771" cy="-630.533" rx="4.00001" ry="4.00001"/>
<polygon fill="#02c3ca" stroke="#02c3ca" points="338.012,-453.608 343.075,-443.881 338.297,-448.616 338.582,-443.624 338.582,-443.624 338.582,-443.624 338.297,-448.616 334.089,-443.368 338.012,-453.608 338.012,-453.608"/>
</g>
<!-- Story&#45;&gt;StoriesInIteration -->
<g id="edge10" class="edge"><title>Story&#45;&gt;StoriesInIteration</title>
<path fill="none" stroke="#a5e606" d="M284.99,-268.851C276.76,-255.605 268.646,-242.545 261.461,-230.981"/>
<ellipse fill="none" stroke="#a5e606" cx="287.312" cy="-272.588" rx="4.00002" ry="4.00002"/>
<polygon fill="#a5e606" stroke="#a5e606" points="261.439,-230.945 259.984,-220.076 258.8,-226.698 256.162,-222.451 256.162,-222.451 256.162,-222.451 258.8,-226.698 252.339,-224.825 261.439,-230.945 261.439,-230.945"/>
</g>
<!-- Task -->
<g id="node6" class="node"><title>Task</title>
<polyline fill="none" stroke="black" points="328.495,-1 437.505,-1 "/>
<path fill="none" stroke="black" d="M437.505,-1C443.505,-1 449.505,-7 449.505,-13"/>
<polyline fill="none" stroke="black" points="449.505,-13 449.505,-89 "/>
<path fill="none" stroke="black" d="M449.505,-89C449.505,-95 443.505,-101 437.505,-101"/>
<polyline fill="none" stroke="black" points="437.505,-101 328.495,-101 "/>
<path fill="none" stroke="black" d="M328.495,-101C322.495,-101 316.495,-95 316.495,-89"/>
<polyline fill="none" stroke="black" points="316.495,-89 316.495,-13 "/>
<path fill="none" stroke="black" d="M316.495,-13C316.495,-7 322.495,-1 328.495,-1"/>
<text text-anchor="middle" x="383" y="-83" font-family="Times,serif" font-size="14.00">Task</text>
<polyline fill="none" stroke="black" points="316.495,-76.2 449.505,-76.2 "/>
<text text-anchor="start" x="324.495" y="-58.2" font-family="Times,serif" font-size="14.00">name :string</text>
<text text-anchor="start" x="324.495" y="-41.4" font-family="Times,serif" font-size="14.00">description :text</text>
<text text-anchor="start" x="324.495" y="-24.6" font-family="Times,serif" font-size="14.00">created_at :datetime</text>
<text text-anchor="start" x="324.495" y="-7.8" font-family="Times,serif" font-size="14.00">updated_at :datetime</text>
</g>
<!-- Story&#45;&gt;Task -->
<g id="edge12" class="edge"><title>Story&#45;&gt;Task</title>
<path fill="none" stroke="#c070aa" d="M341.625,-268.067C343.217,-227.906 346.908,-180.304 355,-138 356.712,-129.053 359.085,-119.744 361.733,-110.697"/>
<ellipse fill="none" stroke="#c070aa" cx="341.472" cy="-272.26" rx="4" ry="4"/>
<polygon fill="#c070aa" stroke="#c070aa" points="361.771,-110.575 368.999,-102.329 363.233,-105.794 364.696,-101.012 364.696,-101.012 364.696,-101.012 363.233,-105.794 360.393,-99.6959 361.771,-110.575 361.771,-110.575"/>
</g>
<!-- Team -->
<g id="node7" class="node"><title>Team</title>
<polyline fill="none" stroke="black" points="376.495,-139 485.505,-139 "/>
<path fill="none" stroke="black" d="M485.505,-139C491.505,-139 497.505,-145 497.505,-151"/>
<polyline fill="none" stroke="black" points="497.505,-151 497.505,-227 "/>
<path fill="none" stroke="black" d="M497.505,-227C497.505,-233 491.505,-239 485.505,-239"/>
<polyline fill="none" stroke="black" points="485.505,-239 376.495,-239 "/>
<path fill="none" stroke="black" d="M376.495,-239C370.495,-239 364.495,-233 364.495,-227"/>
<polyline fill="none" stroke="black" points="364.495,-227 364.495,-151 "/>
<path fill="none" stroke="black" d="M364.495,-151C364.495,-145 370.495,-139 376.495,-139"/>
<text text-anchor="middle" x="431" y="-221" font-family="Times,serif" font-size="14.00">Team</text>
<polyline fill="none" stroke="black" points="364.495,-214.2 497.505,-214.2 "/>
<text text-anchor="start" x="372.495" y="-196.2" font-family="Times,serif" font-size="14.00">name :string</text>
<text text-anchor="start" x="372.495" y="-179.4" font-family="Times,serif" font-size="14.00">description :text</text>
<text text-anchor="start" x="372.495" y="-162.6" font-family="Times,serif" font-size="14.00">created_at :datetime</text>
<text text-anchor="start" x="372.495" y="-145.8" font-family="Times,serif" font-size="14.00">updated_at :datetime</text>
</g>
<!-- Story&#45;&gt;Team -->
<g id="edge14" class="edge"><title>Story&#45;&gt;Team</title>
<path fill="none" stroke="#2cdcd3" d="M390.05,-266.896C393.354,-260.69 396.63,-254.54 399.803,-248.58"/>
<polygon fill="#2cdcd3" stroke="#2cdcd3" points="389.91,-267.159 381.237,-273.87 387.559,-271.572 385.209,-275.985 385.209,-275.985 385.209,-275.985 387.559,-271.572 389.181,-278.101 389.91,-267.159 389.91,-267.159"/>
<polygon fill="#2cdcd3" stroke="#2cdcd3" points="399.996,-248.218 408.669,-241.506 402.347,-243.804 404.697,-239.391 404.697,-239.391 404.697,-239.391 402.347,-243.804 400.725,-237.276 399.996,-248.218 399.996,-248.218"/>
</g>
<!-- Team&#45;&gt;Task -->
<g id="edge16" class="edge"><title>Team&#45;&gt;Task</title>
<path fill="none" stroke="#7b4cc6" d="M410.986,-131.294C408.602,-124.538 406.164,-117.63 403.769,-110.846"/>
<ellipse fill="none" stroke="#7b4cc6" cx="412.34" cy="-135.129" rx="4.00001" ry="4.00001"/>
<polygon fill="#7b4cc6" stroke="#7b4cc6" points="403.632,-110.457 404.547,-99.5293 401.968,-105.742 400.304,-101.027 400.304,-101.027 400.304,-101.027 401.968,-105.742 396.06,-102.525 403.632,-110.457 403.632,-110.457"/>
</g>
</g>
</svg>
